<svg id="visual" viewBox="0 0 1624 540" width="1624" height="540" xmlns="http://www.w3.org/2000/svg" xmlns:xlink="http://www.w3.org/1999/xlink" version="1.1"><rect x="0" y="0" width="1624" height="540" fill="#FFFFFF"></rect><path d="M0 341L33.8 343.5C67.7 346 135.3 351 203 362.3C270.7 373.7 338.3 391.3 406 405C473.7 418.7 541.3 428.3 609 410C676.7 391.7 744.3 345.3 812 321.7C879.7 298 947.3 297 1015 306.7C1082.7 316.3 1150.3 336.7 1218 351.7C1285.7 366.7 1353.3 376.3 1421 377.2C1488.7 378 1556.3 370 1590.2 366L1624 362L1624 541L1590.2 541C1556.3 541 1488.7 541 1421 541C1353.3 541 1285.7 541 1218 541C1150.3 541 1082.7 541 1015 541C947.3 541 879.7 541 812 541C744.3 541 676.7 541 609 541C541.3 541 473.7 541 406 541C338.3 541 270.7 541 203 541C135.3 541 67.7 541 33.8 541L0 541Z" fill="#FCAF3C" stroke-linecap="round" stroke-linejoin="miter"></path></svg>
